<svg xmlns="http://www.w3.org/2000/svg" viewBox="0 0 118 118">
  <defs>
    <style>
      .cls-1 {
        fill: #72b452;
      }

      .cls-2, .cls-3, .cls-4 {
        fill: none;
        stroke: #fff;
        stroke-width: 3px;
      }

      .cls-2, .cls-4 {
        stroke-linecap: round;
      }

      .cls-2, .cls-3 {
        stroke-miterlimit: 10;
      }

      .cls-4 {
        stroke-linejoin: round;
      }
    </style>
  </defs>
  <title>Asset 12</title>
  <g id="Layer_2" data-name="Layer 2">
    <g id="Layer_3" data-name="Layer 3">
      <circle class="cls-1" cx="59" cy="59" r="59"/>
      <g>
        <path class="cls-2" d="M49.427,52.284c1.693,5.119-4.995,9.028-8.638,5.071"/>
        <path class="cls-2" d="M75.685,67.766c1.693,5.118-4.995,9.028-8.638,5.07"/>
        <path class="cls-2" d="M54.6,71.976C52.812,77.061,45.13,76.06,44.67,70.7"/>
        <path class="cls-2" d="M65.908,60.25c-1.793,5.084-9.475,4.084-9.935-1.276"/>
        <path class="cls-2" d="M64.688,79.069c1.494,5.179-5.341,8.828-8.828,4.734"/>
        <path class="cls-2" d="M78.467,54.822c-3.627,3.988-10.318.082-8.658-5.035"/>
        <path class="cls-3" d="M83.059,64a6.9,6.9,0,0,0-.83-11.8c0-.043.006-.085.006-.129A6.9,6.9,0,0,0,77,45.372a6.9,6.9,0,0,0-13.255-.486,6.9,6.9,0,0,0-11.651-.55,6.9,6.9,0,0,0-11.851.932A6.9,6.9,0,0,0,34.8,54.054a6.892,6.892,0,0,0,.074,11.152,6.9,6.9,0,0,0,4.206,11.26,6.9,6.9,0,0,0,4.431,9.927,6.9,6.9,0,0,0,10.613,4.015,6.9,6.9,0,0,0,11.948.54,6.889,6.889,0,0,0,9.851-5.629,6.886,6.886,0,0,0,5.861-9.306A6.9,6.9,0,0,0,83.059,64Z"/>
        <path class="cls-4" d="M40.922,44.181a6.877,6.877,0,0,1,11.171.154,6.9,6.9,0,0,1,11.651.55,6.9,6.9,0,0,1,12.338-1.613,16.7,16.7,0,0,0,6.153-8.16c-12.465-4.238-16.348,1.256-16.348,1.256-.755-9.286-7.084-12.129-8.04-12.509-.957.38-7.286,3.223-8.042,12.509,0,0-3.882-5.494-16.347-1.256A17.26,17.26,0,0,0,40.922,44.181Z"/>
      </g>
    </g>
  </g>
</svg>
