<svg xmlns="http://www.w3.org/2000/svg" viewBox="0 0 34 31.536">
  <defs>
    <style>
      .cls-1 {
        fill: #24a641;
        stroke: #24a641;
        stroke-miterlimit: 10;
      }
    </style>
  </defs>
  <title>Asset 9</title>
  <g id="Layer_2" data-name="Layer 2">
    <g id="Layer_5" data-name="Layer 5">
      <g>
        <path class="cls-1" d="M14.337,25.232a2.9,2.9,0,1,0,2.9,2.9,2.905,2.905,0,0,0-2.9-2.9Zm0,4.184a1.282,1.282,0,1,1,1.282-1.282,1.283,1.283,0,0,1-1.282,1.282Zm0,0"/>
        <path class="cls-1" d="M24.517,25.232a2.9,2.9,0,1,0,2.9,2.9,2.906,2.906,0,0,0-2.9-2.9Zm0,4.184A1.282,1.282,0,1,1,25.8,28.134a1.283,1.283,0,0,1-1.282,1.282Zm0,0"/>
        <path class="cls-1" d="M25.232,9.952H13.621a.81.81,0,1,0,0,1.621H25.232a.81.81,0,1,0,0-1.621Zm0,0"/>
        <g>
          <path class="cls-1" d="M24.6,14.159H14.253a.81.81,0,1,0,0,1.62H24.6a.81.81,0,0,0,0-1.62Zm0,0"/>
          <path class="cls-1" d="M33.135,6.342a1.614,1.614,0,0,0-1.256-.6H6.641L6.131,3.27a1.622,1.622,0,0,0-.942-1.159L1.633.567A.81.81,0,0,0,.988,2.054L4.544,3.6l3.92,19.031a1.627,1.627,0,0,0,1.587,1.294H29.463a.81.81,0,1,0,0-1.62H10.052l-.477-2.315H29.613A1.626,1.626,0,0,0,31.2,18.692l2.266-11a1.613,1.613,0,0,0-.331-1.35ZM29.613,18.366H9.241l-2.266-11h24.9Zm0,0"/>
        </g>
      </g>
    </g>
  </g>
</svg>
