<svg xmlns="http://www.w3.org/2000/svg" viewBox="0 0 35.049 32.432">
  <defs>
    <style>
      .cls-1 {
        fill: #fff;
      }
    </style>
  </defs>
  <title>Asset 11</title>
  <g id="Layer_2" data-name="Layer 2">
    <g id="Layer_2-2" data-name="Layer 2">
      <g>
        <path class="cls-1" d="M14.7,26.268a3.082,3.082,0,1,0,3.083,3.082A3.086,3.086,0,0,0,14.7,26.268Zm0,4.444a1.361,1.361,0,1,1,1.361-1.361A1.363,1.363,0,0,1,14.7,30.711Zm0,0"/>
        <path class="cls-1" d="M25.509,26.268a3.082,3.082,0,1,0,3.083,3.082,3.086,3.086,0,0,0-3.083-3.082Zm0,4.444A1.361,1.361,0,1,1,26.87,29.35a1.363,1.363,0,0,1-1.361,1.361Zm0,0"/>
        <path class="cls-1" d="M26.268,10.039H13.935a.861.861,0,1,0,0,1.721H26.268a.861.861,0,1,0,0-1.721Zm0,0"/>
        <path class="cls-1" d="M25.6,14.507H14.607a.861.861,0,1,0,0,1.721H25.6a.861.861,0,0,0,0-1.721Zm0,0"/>
        <path class="cls-1" d="M34.662,6.2a1.715,1.715,0,0,0-1.334-.634H6.522L5.981,2.942a1.723,1.723,0,0,0-1-1.231L1.2.071A.86.86,0,0,0,.518,1.65L4.3,3.29,8.459,23.5a1.728,1.728,0,0,0,1.686,1.374H30.761a.861.861,0,1,0,0-1.721H10.145L9.638,20.7H30.921a1.727,1.727,0,0,0,1.686-1.374L35.014,7.639A1.713,1.713,0,0,0,34.662,6.2ZM30.921,18.975H9.284L6.877,7.291H33.328Zm0,0"/>
      </g>
    </g>
  </g>
</svg>
