<svg xmlns="http://www.w3.org/2000/svg" viewBox="0 0 29.017 21.588">
  <defs>
    <style>
      .cls-1 {
        fill: #57cae9;
      }
    </style>
  </defs>
  <title>Asset 20</title>
  <g id="Layer_2" data-name="Layer 2">
    <g id="Layer_2-2" data-name="Layer 2">
      <g>
        <path class="cls-1" d="M26.27,9.685a5.054,5.054,0,0,0,2.747-4.662C29.017,2.254,27.052,0,24.637,0s-4.379,2.254-4.379,5.024A5.054,5.054,0,0,0,23,9.685l.12.055v2.735h-.592a.369.369,0,0,0-.368.368v6.271a2.473,2.473,0,1,0,4.947,0V12.844a.369.369,0,0,0-.368-.368H26.15V9.741Zm.1,3.527v5.9a1.732,1.732,0,0,1-1.084,1.609l-.284.116V16.9a.369.369,0,1,0-.737,0v3.944l-.284-.116A1.732,1.732,0,0,1,22.9,19.115v-5.9Zm-2.512-.737v-2.5l.235.033a3.879,3.879,0,0,0,1.081,0l.235-.033v2.5Zm.776-3.165c-2.008,0-3.642-1.923-3.642-4.287S22.629.737,24.637.737,28.28,2.66,28.28,5.024,26.646,9.311,24.637,9.311Z"/>
        <path class="cls-1" d="M24.637,7.615a1.7,1.7,0,0,1-1.273-.647,2.966,2.966,0,0,1-.674-1.945.369.369,0,1,0-.737,0,3.7,3.7,0,0,0,.853,2.426,2.423,2.423,0,0,0,1.831.9.369.369,0,1,0,0-.737Z"/>
        <path class="cls-1" d="M0,15.52a5.606,5.606,0,0,0,5.6,5.6h7.776a5.605,5.605,0,0,0,5.6-5.6V6.835a3.37,3.37,0,0,0-2.339-3.214l-.251-.081.14-.224A1.862,1.862,0,0,0,14.943.469H4.032A1.862,1.862,0,0,0,2.45,3.316l.14.224-.251.081A3.37,3.37,0,0,0,0,6.835ZM4.032,1.206H14.943a1.126,1.126,0,0,1,0,2.252H4.032a1.126,1.126,0,1,1,0-2.252ZM.737,6.835a2.638,2.638,0,0,1,.119-.784L.9,5.906H13.581a.369.369,0,0,0,0-.737H1.253L1.692,4.8A2.641,2.641,0,0,1,3.377,4.2H15.6a2.643,2.643,0,0,1,2.64,2.64V15.52a4.868,4.868,0,0,1-4.862,4.862H5.6A4.868,4.868,0,0,1,.737,15.52Z"/>
        <path class="cls-1" d="M16.188,5.4a.426.426,0,0,0-.036-.068.42.42,0,0,0-.044-.053.391.391,0,0,0-.057-.046.348.348,0,0,0-.062-.033.383.383,0,0,0-.071-.022.366.366,0,0,0-.142,0,.353.353,0,0,0-.068.021.359.359,0,0,0-.066.035.381.381,0,0,0-.056.046.361.361,0,0,0-.045.055.4.4,0,0,0-.034.064.353.353,0,0,0-.021.068.366.366,0,0,0-.008.073.379.379,0,0,0,.028.14.4.4,0,0,0,.035.066.379.379,0,0,0,.046.055.352.352,0,0,0,.053.043.38.38,0,0,0,.064.034.391.391,0,0,0,.072.022.379.379,0,0,0,.143,0,.412.412,0,0,0,.068-.021.35.35,0,0,0,.062-.033.361.361,0,0,0,.058-.047.4.4,0,0,0,.047-.057.4.4,0,0,0,.032-.061.369.369,0,0,0,.022-.07.371.371,0,0,0,0-.143A.365.365,0,0,0,16.188,5.4Z"/>
        <path class="cls-1" d="M24.431,14.935a.38.38,0,0,0,.064.034.384.384,0,0,0,.071.022.346.346,0,0,0,.141,0,.4.4,0,0,0,.072-.022.366.366,0,0,0,.227-.339A.387.387,0,0,0,25,14.557a.387.387,0,0,0-.057-.135.391.391,0,0,0-.044-.053.4.4,0,0,0-.057-.046.357.357,0,0,0-.063-.033.4.4,0,0,0-.07-.021.366.366,0,0,0-.142,0,.381.381,0,0,0-.07.021.352.352,0,0,0-.064.034.371.371,0,0,0-.056.045.361.361,0,0,0-.045.056.412.412,0,0,0-.035.065.352.352,0,0,0-.02.067.36.36,0,0,0-.008.073.371.371,0,0,0,.108.261A.344.344,0,0,0,24.431,14.935Z"/>
        <path class="cls-1" d="M15.847,7.363H3.127a.369.369,0,0,0-.368.368V15.97a.369.369,0,0,0,.368.368h12.72a.369.369,0,0,0,.369-.368V7.731A.369.369,0,0,0,15.847,7.363ZM15.479,15.6H3.5V8.1H15.479Z"/>
      </g>
    </g>
  </g>
</svg>
