<svg xmlns="http://www.w3.org/2000/svg" viewBox="0 0 24.17 24.105">
  <defs>
    <style>
      .cls-1 {
        fill: #ef6f06;
      }
    </style>
  </defs>
  <title>Asset 22</title>
  <g id="Layer_2" data-name="Layer 2">
    <g id="Layer_2-2" data-name="Layer 2">
      <g>
        <path class="cls-1" d="M15.71,5.187l.806,0,0,.805-.806,0Zm0,0"/>
        <path class="cls-1" d="M23.768,12.826h-5.72L18.531,5.6a.406.406,0,0,0-.108-.3.441.441,0,0,0-.295-.127l-.806,0,0,.806H17.7l-.1,1.441-1.168.648a4.446,4.446,0,0,1-3.947.174V6.008L14.907,6l0-.805L12.489,5.2V3.381l4.244-2.7L16.3,0,11.87,2.82a.4.4,0,0,0-.186.34V5.207l-5.637.029a.4.4,0,0,0-.4.4v.025L6.1,12.388a6.844,6.844,0,0,0-.564,1.347,4,4,0,0,0-3.491-2.05.4.4,0,0,0-.4.4,3.978,3.978,0,0,0,.661,2.2,2.219,2.219,0,0,0-.483.322l-.117.1A5,5,0,0,0,.164,19.733l.246.951A5.009,5.009,0,0,0,2.485,23.6a2.822,2.822,0,0,0,2.959.115l-.023-.04a9.779,9.779,0,0,0,2.318.392c.081,0,.161,0,.245.006V24.1H13.3A10.866,10.866,0,0,0,24.17,13.249v-.019a.4.4,0,0,0-.4-.4Zm-5.874,1.025v-.22h4.011a8.64,8.64,0,0,1-5.129,7.489,8.54,8.54,0,0,1-2.343.657,9.25,9.25,0,0,0,1.587-1.793,10.909,10.909,0,0,0,1.874-6.133Zm-6.21-7.84V7.959a5.249,5.249,0,0,0-3.934.46l-1.072.6-.2-2.977ZM7.311,12l.049-.064-.514-.4L6.737,9.906l1.4-.782a4.445,4.445,0,0,1,3.98-.161,5.249,5.249,0,0,0,4.7-.189l.712-.4-.18,2.708a1.338,1.338,0,0,0-.292-.171l-.6-.251a1.141,1.141,0,0,0-.992.052,1.166,1.166,0,0,0-.59.828,10.631,10.631,0,0,1-3.639,6.333A4.986,4.986,0,0,0,9.584,14.71l-.117-.1a2.192,2.192,0,0,0-2.868-.04l-.507.423A6.04,6.04,0,0,1,7.311,12Zm-2.1,3.258a3.2,3.2,0,0,1-2.736-2.736A3.205,3.205,0,0,1,5.21,15.256ZM2.931,22.93A4.208,4.208,0,0,1,1.19,20.482l-.246-.95a4.194,4.194,0,0,1,1.291-4.217l.117-.1a1.4,1.4,0,0,1,.489-.27,3.988,3.988,0,0,0,2.8,1.148.415.415,0,0,0,.076-.015,1.093,1.093,0,0,0,.625-.247l.771-.644a1.39,1.39,0,0,1,1.819.026l.117.1a4.187,4.187,0,0,1,1.42,3.148,10.639,10.639,0,0,1-5.31,1.9l-1.784.134A.4.4,0,0,0,3,20.9v1.467a.4.4,0,0,0,.2.348l.056.033a9.86,9.86,0,0,0,1.02.515,2.027,2.027,0,0,1-1.348-.329Zm4.846.331h0a9.03,9.03,0,0,1-3.968-1.133v-.861l1.41-.106a11.482,11.482,0,0,0,10.455-9.478.362.362,0,0,1,.183-.26.335.335,0,0,1,.294-.016l.6.251a.541.541,0,0,1,.334.5v1.692a10.108,10.108,0,0,1-1.736,5.682,8.557,8.557,0,0,1-7.574,3.726ZM13.3,23.3H12.011a9.231,9.231,0,0,0,1.284-.676v.038a9.346,9.346,0,0,0,3.808-.8,9.445,9.445,0,0,0,5.608-8.225h.646A10.059,10.059,0,0,1,13.3,23.3Zm0,0"/>
        <rect class="cls-1" x="18.531" y="14.438" width="0.806" height="0.805"/>
        <rect class="cls-1" x="17.323" y="18.466" width="0.806" height="0.805"/>
        <rect class="cls-1" x="18.531" y="16.854" width="0.806" height="0.806"/>
      </g>
    </g>
  </g>
</svg>
