<svg xmlns="http://www.w3.org/2000/svg" viewBox="0 0 27.594 28.5">
  <defs>
    <style>
      .cls-1 {
        fill: #24a641;
      }
    </style>
  </defs>
  <title>Asset 10</title>
  <g id="Layer_2" data-name="Layer 2">
    <g id="Layer_5" data-name="Layer 5">
      <g>
        <path class="cls-1" d="M13.8,16.119a8.06,8.06,0,1,1,8.06-8.06A8.069,8.069,0,0,1,13.8,16.119ZM13.8,2.5a5.56,5.56,0,1,0,5.56,5.56A5.566,5.566,0,0,0,13.8,2.5Z"/>
        <path class="cls-1" d="M25.669,28.5H1.925A1.927,1.927,0,0,1,0,26.575a9.541,9.541,0,0,1,9.53-9.531h8.534a9.541,9.541,0,0,1,9.53,9.531A1.927,1.927,0,0,1,25.669,28.5ZM2.523,26H25.071a7.04,7.04,0,0,0-7.007-6.456H9.53A7.04,7.04,0,0,0,2.523,26Z"/>
      </g>
    </g>
  </g>
</svg>
