<svg xmlns="http://www.w3.org/2000/svg" viewBox="0 0 158.728 39.118">
  <defs>
    <style>
      .cls-1 {
        fill: #4d4d4d;
      }

      .cls-2 {
        fill: #24a641;
      }
    </style>
  </defs>
  <title>Asset 31150</title>
  <g id="Layer_2" data-name="Layer 2">
    <g id="Layer_5" data-name="Layer 5">
      <g>
        <g>
          <g>
            <path class="cls-1" d="M13.864,13.333a6.24,6.24,0,0,1-6.272,6.024H3.246v6.9a1.609,1.609,0,0,1-1.623,1.623A1.609,1.609,0,0,1,0,26.262V8.794A1.648,1.648,0,0,1,1.54,7.171V7.006H7.812A6.276,6.276,0,0,1,13.864,13.333Zm-3.274,0a3.041,3.041,0,0,0-2.778-3.053H3.246v5.8H7.592A2.965,2.965,0,0,0,10.591,13.333Z"/>
            <path class="cls-1" d="M23.575,27.995c-3.769,0-7.785-2.558-7.785-7.262V8.794a1.667,1.667,0,0,1,1.678-1.678,1.691,1.691,0,0,1,1.706,1.678V20.732c0,2.531,2.228,3.851,4.4,3.851,2.2,0,4.429-1.32,4.429-3.851V8.794A1.691,1.691,0,0,1,29.71,7.116a1.667,1.667,0,0,1,1.678,1.678V20.732C31.388,25.436,27.371,27.995,23.575,27.995Z"/>
            <path class="cls-1" d="M35.487,28.022a1.6,1.6,0,0,1-1.128-.468,1.647,1.647,0,0,1-.5-1.155V8.766a1.626,1.626,0,0,1,1.623-1.623A1.609,1.609,0,0,1,37.11,8.766V24.749l8.088-.083h.028a1.623,1.623,0,1,1,0,3.246l-9.711.11Z"/>
            <path class="cls-1" d="M62.638,13.333a6.24,6.24,0,0,1-6.272,6.024H52.02v6.9a1.623,1.623,0,1,1-3.246,0V8.794a1.648,1.648,0,0,1,1.54-1.623V7.006h6.272A6.276,6.276,0,0,1,62.638,13.333Zm-3.274,0a3.041,3.041,0,0,0-2.778-3.053H52.02v5.8h4.346A2.965,2.965,0,0,0,59.365,13.333Z"/>
            <path class="cls-1" d="M99.693,17.431a1.632,1.632,0,0,1-1.651,1.623H90.175v7.1a1.632,1.632,0,0,1-1.651,1.623A1.609,1.609,0,0,1,86.9,26.152V8.546A1.632,1.632,0,0,1,88.525,6.9h9.518a1.651,1.651,0,1,1,0,3.3H90.175v5.584h7.868A1.638,1.638,0,0,1,99.693,17.431Z"/>
            <path class="cls-1" d="M114.328,27.747a1.525,1.525,0,0,1-.77.193,1.567,1.567,0,0,1-1.431-.88l-4.044-7.675H104.59v6.9a1.623,1.623,0,1,1-3.246,0V8.849a1.648,1.648,0,0,1,1.54-1.623V7.061h6.272a6.253,6.253,0,0,1,6.024,6.327,6.026,6.026,0,0,1-3.714,5.447l3.549,6.712A1.633,1.633,0,0,1,114.328,27.747ZM104.59,16.138h4.346a2.965,2.965,0,0,0,3-2.751,3.021,3.021,0,0,0-2.778-3.053H104.59Z"/>
            <path class="cls-1" d="M125.47,27.995c-3.769,0-7.785-2.558-7.785-7.262V8.794a1.667,1.667,0,0,1,1.678-1.678,1.691,1.691,0,0,1,1.706,1.678V20.732c0,2.531,2.228,3.851,4.4,3.851,2.2,0,4.429-1.32,4.429-3.851V8.794A1.691,1.691,0,0,1,131.6,7.116a1.667,1.667,0,0,1,1.678,1.678V20.732C133.282,25.436,129.266,27.995,125.47,27.995Z"/>
            <path class="cls-1" d="M138.234,27.912a1.661,1.661,0,0,1-1.65-1.678V8.711a1.664,1.664,0,1,1,3.328,0V26.234A1.667,1.667,0,0,1,138.234,27.912Z"/>
            <path class="cls-1" d="M158.728,8.766a1.661,1.661,0,0,1-1.651,1.678h-4.731V26.317a1.664,1.664,0,1,1-3.329,0V10.444h-4.7a1.664,1.664,0,0,1,0-3.329h12.764A1.655,1.655,0,0,1,158.728,8.766Z"/>
          </g>
          <g>
            <path class="cls-2" d="M79.709.157a4.148,4.148,0,0,0-5.155,5,4.148,4.148,0,0,0,5.155-5Z"/>
            <path class="cls-2" d="M70.1,1.723a2.825,2.825,0,0,0,3.408,3.511A2.825,2.825,0,0,0,70.1,1.723Z"/>
            <path class="cls-2" d="M81.089,21.051v5.561a1.32,1.32,0,0,1-.4.97,1.3,1.3,0,0,1-.955.4,1.363,1.363,0,0,1-1.369-1.369V22.549a11.859,11.859,0,0,1-8.556,0v4.064a1.363,1.363,0,0,1-1.369,1.369,1.3,1.3,0,0,1-.955-.4,1.319,1.319,0,0,1-.4-.97V21.037a11.309,11.309,0,0,1-3.308-3.807,1.323,1.323,0,0,1-.171-.642,1.451,1.451,0,0,1,.057-.4,1.3,1.3,0,0,1,.656-.813,1.324,1.324,0,0,1,.642-.171,1.453,1.453,0,0,1,.4.057,1.369,1.369,0,0,1,.813.656,9.138,9.138,0,0,0,.913,1.383v-3.28a6.745,6.745,0,0,1,2.053-4.948,6.989,6.989,0,0,1,9.9,0,6.744,6.744,0,0,1,2.054,4.948V17.3a10.035,10.035,0,0,0,.927-1.383,1.314,1.314,0,0,1,.8-.656,1.45,1.45,0,0,1,.4-.057,1.326,1.326,0,0,1,.642.171,1.305,1.305,0,0,1,.656.813,1.455,1.455,0,0,1,.057.4,1.324,1.324,0,0,1-.171.642A11.48,11.48,0,0,1,81.089,21.051Zm-2.724-1.5V14.021a4.278,4.278,0,0,0-8.556,0v5.533a9.091,9.091,0,0,0,8.556,0Z"/>
          </g>
        </g>
        <g>
          <path class="cls-2" d="M30.985,34.166h-.723v-.624H31V31.953h.734v1.589h1.381v.624H31.73v2.739c0,1.292.821,1.457,1.238,1.457a1.249,1.249,0,0,0,.252-.022v.669a2.012,2.012,0,0,1-.318.021,1.79,1.79,0,0,1-1.917-2.049Z"/>
          <path class="cls-2" d="M36.636,31.284h.745v2.98a4.419,4.419,0,0,1-.022.449h.022a2.36,2.36,0,0,1,2.191-1.369c1.358,0,1.84.777,1.84,2.136v3.506h-.745V35.678c0-.865-.131-1.632-1.193-1.632a2.091,2.091,0,0,0-2,1.566,2.568,2.568,0,0,0-.088.734v2.64h-.745Z"/>
          <path class="cls-2" d="M47.656,33.345a2.3,2.3,0,0,1,2.3,2.541c0,.132-.021.384-.021.384H45.706a2.075,2.075,0,0,0,2.136,2.181,2.563,2.563,0,0,0,1.677-.669l.34.57a3.159,3.159,0,0,1-2.038.767,2.786,2.786,0,0,1-2.882-2.882A2.69,2.69,0,0,1,47.656,33.345ZM49.2,35.656a1.55,1.55,0,0,0-1.566-1.687,1.869,1.869,0,0,0-1.9,1.688Z"/>
          <path class="cls-2" d="M58.959,34.166h-.69v-.624h.69v-.264a1.8,1.8,0,0,1,1.906-2.049,2.234,2.234,0,0,1,.34.022v.668a1.506,1.506,0,0,0-.263-.021c-.428,0-1.238.153-1.238,1.38v.264h1.413v.624H59.7v4.82h-.745Z"/>
          <path class="cls-2" d="M64.4,33.475h.734v.976a4.321,4.321,0,0,1-.022.438h.022a1.879,1.879,0,0,1,1.741-1.468,1.478,1.478,0,0,1,.3.033v.733a1.909,1.909,0,0,0-.273-.021,1.766,1.766,0,0,0-1.6,1.424,3.645,3.645,0,0,0-.153,1.074v2.322H64.4Z"/>
          <path class="cls-2" d="M70.415,33.475h.745v3.309c0,.866.132,1.633,1.194,1.633a2.14,2.14,0,0,0,2.038-2.3V33.475h.745v5.511h-.724v-.821a4.329,4.329,0,0,1,.022-.438h-.022a2.355,2.355,0,0,1-2.158,1.392c-1.293,0-1.841-.7-1.841-2.137Z"/>
          <path class="cls-2" d="M79.1,31.284h.777v.932H79.1Zm.021,2.191h.745v5.511h-.745Z"/>
          <path class="cls-2" d="M84.063,34.166H83.34v-.624h.733V31.953h.734v1.589h1.381v.624H84.808v2.739c0,1.292.821,1.457,1.238,1.457a1.249,1.249,0,0,0,.252-.022v.669a2.012,2.012,0,0,1-.318.021,1.79,1.79,0,0,1-1.917-2.049Z"/>
          <path class="cls-2" d="M95.059,34.166h-.723v-.624h.733V31.953H95.8v1.589h1.381v.624H95.8v2.739c0,1.292.821,1.457,1.238,1.457a1.249,1.249,0,0,0,.252-.022v.669a2.012,2.012,0,0,1-.318.021,1.79,1.79,0,0,1-1.917-2.049Z"/>
          <path class="cls-2" d="M103.635,35.579h.307v-.143a1.237,1.237,0,0,0-1.369-1.424,2.685,2.685,0,0,0-1.556.525l-.351-.569a3.165,3.165,0,0,1,1.961-.624,1.876,1.876,0,0,1,2.06,2.114v3.527h-.712v-.6a4.255,4.255,0,0,1,.022-.46h-.022a1.99,1.99,0,0,1-1.841,1.194,1.707,1.707,0,0,1-1.873-1.633C100.261,35.623,102.682,35.579,103.635,35.579Zm-1.38,2.9a1.921,1.921,0,0,0,1.687-2.049v-.241h-.317c-.865,0-2.6.033-2.6,1.249A1.1,1.1,0,0,0,102.255,38.482Z"/>
          <path class="cls-2" d="M108.553,37.781a2.363,2.363,0,0,0,1.644.669c.592,0,1.106-.3,1.106-.877,0-1.205-2.969-.909-2.969-2.706,0-.986.887-1.522,1.884-1.522a2.319,2.319,0,0,1,1.7.6l-.34.569a1.953,1.953,0,0,0-1.38-.5c-.559,0-1.1.241-1.1.854,0,1.216,2.969.888,2.969,2.706a1.671,1.671,0,0,1-1.884,1.545,2.808,2.808,0,0,1-2.038-.8Z"/>
          <path class="cls-2" d="M115.848,34.166h-.723v-.624h.733V31.953h.734v1.589h1.381v.624h-1.381v2.739c0,1.292.821,1.457,1.238,1.457a1.249,1.249,0,0,0,.252-.022v.669a2.012,2.012,0,0,1-.318.021,1.79,1.79,0,0,1-1.917-2.049Z"/>
          <path class="cls-2" d="M123.834,33.345a2.3,2.3,0,0,1,2.3,2.541c0,.132-.021.384-.021.384h-4.229a2.075,2.075,0,0,0,2.136,2.181,2.563,2.563,0,0,0,1.677-.669l.34.57a3.159,3.159,0,0,1-2.038.767,2.786,2.786,0,0,1-2.882-2.882A2.69,2.69,0,0,1,123.834,33.345Zm1.544,2.312a1.55,1.55,0,0,0-1.566-1.687,1.869,1.869,0,0,0-1.9,1.688Z"/>
        </g>
      </g>
    </g>
  </g>
</svg>
