<svg xmlns="http://www.w3.org/2000/svg" viewBox="0 0 23.389 24.105">
  <defs>
    <style>
      .cls-1 {
        fill: #f25cbd;
      }
    </style>
  </defs>
  <title>Asset 24</title>
  <g id="Layer_2" data-name="Layer 2">
    <g id="Layer_2-2" data-name="Layer 2">
      <g>
        <path class="cls-1" d="M21.448,4.773V3.343A2.029,2.029,0,0,0,19.9,0H3.486A2.029,2.029,0,0,0,1.941,3.343v1.43A2,2,0,0,1,0,6.311v.716a2.22,2.22,0,0,1,1.379.553,3.947,3.947,0,0,0,.944.538V21.766A2.341,2.341,0,0,0,4.661,24.1H6.619v-.716H4.661a1.624,1.624,0,0,1-1.622-1.622V20.317h17.31v1.449a1.624,1.624,0,0,1-1.622,1.622H7.574V24.1H18.727a2.341,2.341,0,0,0,2.338-2.338V8.118a3.959,3.959,0,0,0,.944-.538,2.22,2.22,0,0,1,1.379-.553V6.311a2,2,0,0,1-1.941-1.538ZM3.486.716H19.9a1.312,1.312,0,0,1,1.027,2.13H7.574v.716H20.732v.893H2.657V3.562H6.619V2.846H2.459A1.312,1.312,0,0,1,3.486.716ZM20.349,19.6H3.039V10.294h17.31Zm0-10.023H3.039V8.261c.043,0,.087,0,.132,0a2.279,2.279,0,0,0,1.656-.707,1.589,1.589,0,0,1,2.371,0,2.293,2.293,0,0,0,3.311,0,1.589,1.589,0,0,1,2.371,0,2.293,2.293,0,0,0,3.311,0,1.589,1.589,0,0,1,2.371,0,2.28,2.28,0,0,0,1.656.707c.045,0,.089,0,.132,0ZM21.6,7a3.135,3.135,0,0,1-.821.466l-.157.04a1.6,1.6,0,0,1-.4.047,1.868,1.868,0,0,1-.2-.011,1.674,1.674,0,0,1-.983-.52,2.292,2.292,0,0,0-3.311,0,1.589,1.589,0,0,1-2.371,0,2.292,2.292,0,0,0-3.311,0,1.589,1.589,0,0,1-2.37,0,2.293,2.293,0,0,0-3.311,0A1.618,1.618,0,0,1,2.77,7.5l-.156-.04A3.134,3.134,0,0,1,1.792,7c-.148-.105-.3-.214-.474-.314a2.722,2.722,0,0,0,1.253-1.51H20.817a2.724,2.724,0,0,0,1.253,1.51c-.17.1-.325.209-.474.314Zm0,0"/>
        <path class="cls-1" d="M19.633,21.766v-.741h-.716v.741a.19.19,0,0,1-.19.19H9.005v.716h9.722a.907.907,0,0,0,.906-.906Zm0,0"/>
        <path class="cls-1" d="M9.91,18.683A4.867,4.867,0,0,0,13,17.419a2.442,2.442,0,0,0,.731-1.758c.038,0,.075,0,.114,0a2.567,2.567,0,0,0,1.451-.584l.192-.16-.083-.235a3.059,3.059,0,0,0-.3-.585,2.21,2.21,0,0,0-.488-.546,2.246,2.246,0,0,0,.157-.778,3.079,3.079,0,0,0-.034-.595l-.044-.246-.246-.044a2.938,2.938,0,0,0-.475-.036,2.391,2.391,0,0,0-.9.16,2.212,2.212,0,0,0-.546-.489,3.077,3.077,0,0,0-.585-.3l-.235-.083-.16.192a3.069,3.069,0,0,0-.351.555,1.973,1.973,0,0,0-.227,1.01h-.023a2.444,2.444,0,0,0-1.736.732,4.839,4.839,0,0,0-1.148,2.182,2.434,2.434,0,0,0,.4,2.349,1.977,1.977,0,0,0,1.438.514Zm3.476-5.926v-.012c0-.021,0-.042-.008-.062v-.01a1.685,1.685,0,0,1,.606-.1h.084a1.815,1.815,0,0,1-.1.69h-.013l-.067-.008-.033,0c-.034,0-.068,0-.1,0s-.07,0-.1,0l-.035,0-.067.007-.042.007-.059.01-.043.009-.056.012-.009,0a1.736,1.736,0,0,0,.053-.385v-.008a1.5,1.5,0,0,0-.005-.154ZM13.218,14.1l.032-.014.03-.013.033-.014.031-.012.035-.012.031-.011.036-.011.031-.009L13.517,14l.031-.008.04-.008.029-.005.045-.006.024,0c.023,0,.046,0,.069,0l.049,0a.629.629,0,0,1,.127.021c.017,0,.033.01.049.016l.016.006a1.442,1.442,0,0,1,.628.673,1.6,1.6,0,0,1-.775.267.655.655,0,0,1-.176-.023.6.6,0,0,1-.058-.019,2.79,2.79,0,0,0-.408-.8l.011,0Zm-1.261-2.088a1.455,1.455,0,0,1,.675.629l.005.014c.006.016.012.033.017.05a.612.612,0,0,1,.014.07l0,.011c0,.023.005.047.006.07v.009a1.322,1.322,0,0,1-.145.564,2.79,2.79,0,0,0-.8-.407.6.6,0,0,1-.02-.058,1.344,1.344,0,0,1,.243-.952ZM9.728,14.143a1.711,1.711,0,0,1,1.229-.522,1.829,1.829,0,0,1,.419.05l.023.006a2.116,2.116,0,0,1,.866.46l0,0c.036.031.072.064.106.1h0l.034.034a2.145,2.145,0,0,1,.555.969l.03.121a1.724,1.724,0,0,1-.5,1.55,4.134,4.134,0,0,1-2.588,1.054,1.326,1.326,0,0,1-.931-.3c-.714-.714-.054-2.716.749-3.519Zm0,0"/>
        <rect class="cls-1" x="12.423" y="1.423" width="7.711" height="0.716"/>
        <rect class="cls-1" x="18.917" y="11.814" width="0.716" height="6.268"/>
      </g>
    </g>
  </g>
</svg>
