<svg xmlns="http://www.w3.org/2000/svg" viewBox="0 0 18.606 18.606">
  <defs>
    <style>
      .cls-1 {
        fill: #fff;
        stroke: #fff;
        stroke-linecap: round;
        stroke-linejoin: round;
      }

      .cls-2 {
        fill: #72b452;
      }
    </style>
  </defs>
  <title>Asset 8</title>
  <g id="Layer_2" data-name="Layer 2">
    <g id="Layer_5" data-name="Layer 5">
      <path class="cls-1" d="M16.5,14.557h0a1.876,1.876,0,0,0-2.558,2.354h0a1.876,1.876,0,0,0-3.264,1.2h0A1.876,1.876,0,0,0,7.2,17.961h0A1.876,1.876,0,0,0,4.049,16.5h0A1.876,1.876,0,0,0,1.7,13.94h0A1.876,1.876,0,0,0,.5,10.676h0A1.876,1.876,0,0,0,.645,7.2h0A1.876,1.876,0,0,0,2.108,4.049h0A1.876,1.876,0,0,0,4.666,1.7h0A1.876,1.876,0,0,0,7.93.5h0A1.876,1.876,0,0,0,11.4.645h0a1.876,1.876,0,0,0,3.154,1.463h0a1.876,1.876,0,0,0,2.354,2.558h0a1.876,1.876,0,0,0,1.2,3.264h0a1.876,1.876,0,0,0-.145,3.473h0A1.876,1.876,0,0,0,16.5,14.557Z"/>
      <path class="cls-2" d="M4.446,7.02V6.994A2.177,2.177,0,0,1,6.587,4.684,2.15,2.15,0,0,1,8.7,6.968v.026A2.177,2.177,0,0,1,6.562,9.3,2.157,2.157,0,0,1,4.446,7.02Zm3.109,0V6.994c0-.722-.413-1.316-.993-1.316-.607,0-.968.594-.968,1.29v.026c0,.736.413,1.316.993,1.316C7.193,8.309,7.555,7.716,7.555,7.02ZM5.929,13.044l5.921-8.089a.492.492,0,0,1,.439-.232.507.507,0,0,1,.516.5.582.582,0,0,1-.116.335L6.768,13.65a.53.53,0,0,1-.451.232.5.5,0,0,1-.5-.5A.582.582,0,0,1,5.929,13.044ZM9.9,11.638v-.026a2.135,2.135,0,1,1,4.257-.026v.026a2.185,2.185,0,0,1-2.142,2.31A2.157,2.157,0,0,1,9.9,11.638Zm3.109,0v-.026c0-.722-.413-1.316-.993-1.316-.606,0-.967.594-.967,1.29v.026c0,.736.413,1.316.993,1.316C12.651,12.928,13.012,12.335,13.012,11.638Z"/>
    </g>
  </g>
</svg>
