<svg xmlns="http://www.w3.org/2000/svg" viewBox="0 0 17.375 23.803">
  <defs>
    <style>
      .cls-1 {
        fill: #d82e3a;
      }
    </style>
  </defs>
  <title>Asset 23</title>
  <g id="Layer_2" data-name="Layer 2">
    <g id="Layer_2-2" data-name="Layer 2">
      <g>
        <path class="cls-1" d="M7.1,7.065h-.6V5.2a.33.33,0,0,0-.33-.33H4.882L4.654.313A.329.329,0,0,0,4.325,0H3.107a.329.329,0,0,0-.329.313L2.55,4.872H1.255A.33.33,0,0,0,.926,5.2V7.065H.33A.33.33,0,0,0,0,7.394V23.474a.33.33,0,0,0,.33.329H7.1a.33.33,0,0,0,.33-.329V7.395A.33.33,0,0,0,7.1,7.065ZM3.42.659h.591l.21,4.213H3.21ZM1.585,5.531H5.847V7.065H1.585ZM6.773,23.144H.659V7.724H6.773Z"/>
        <path class="cls-1" d="M2.267,11.146v-.682a.329.329,0,1,0-.659,0v.682a.329.329,0,1,0,.659,0Z"/>
        <path class="cls-1" d="M2.267,21.866V12.754a.329.329,0,1,0-.659,0v9.111a.329.329,0,1,0,.659,0Z"/>
        <g>
          <path class="cls-1" d="M17.045,7.065h-.6V5.2a.33.33,0,0,0-.33-.33H14.825L14.6.313A.329.329,0,0,0,14.268,0H13.05a.329.329,0,0,0-.329.313l-.228,4.559H11.2a.33.33,0,0,0-.329.329V7.065h-.6a.33.33,0,0,0-.33.329V23.474a.33.33,0,0,0,.33.329h6.773a.33.33,0,0,0,.33-.329V7.395A.33.33,0,0,0,17.045,7.065ZM13.363.659h.591l.21,4.213H13.153ZM11.528,5.531H15.79V7.065H11.528Zm5.188,17.613H10.6V7.724h6.114Z"/>
          <path class="cls-1" d="M12.21,11.146v-.682a.329.329,0,1,0-.659,0v.682a.329.329,0,1,0,.659,0Z"/>
          <path class="cls-1" d="M12.21,21.866V12.754a.329.329,0,1,0-.659,0v9.111a.329.329,0,1,0,.659,0Z"/>
        </g>
      </g>
    </g>
  </g>
</svg>
