<svg xmlns="http://www.w3.org/2000/svg" viewBox="0 0 21.017 27.221">
  <defs>
    <style>
      .cls-1 {
        fill: #68c575;
      }
    </style>
  </defs>
  <title>Asset 19</title>
  <g id="Layer_2" data-name="Layer 2">
    <g id="Layer_2-2" data-name="Layer 2">
      <g>
        <g>
          <path class="cls-1" d="M14.763,1.022q.142,0,.283.013A3.041,3.041,0,0,1,14.134,3.4a3.013,3.013,0,0,1-2.109.855q-.142,0-.283-.013a3.028,3.028,0,0,1,3.022-3.222m0-.9A3.933,3.933,0,0,0,10.95,5.012a3.95,3.95,0,0,0,1.075.149A3.919,3.919,0,0,0,14.764,4.05,3.931,3.931,0,0,0,15.838.267,3.95,3.95,0,0,0,14.763.118Z"/>
          <path class="cls-1" d="M12.025,5.279a4.043,4.043,0,0,1-1.107-.154l-.065-.018-.017-.066A4.052,4.052,0,0,1,15.871.153l.065.018.017.066a4.065,4.065,0,0,1-1.106,3.9A4.03,4.03,0,0,1,12.025,5.279Zm-.976-.362a3.81,3.81,0,0,0,.976.127,3.8,3.8,0,0,0,2.657-1.078A3.829,3.829,0,0,0,15.74.362a3.838,3.838,0,0,0-.977-.126,3.815,3.815,0,0,0-3.715,4.681Zm.976-.542c-.1,0-.2,0-.294-.013l-.1-.009-.006-.1A3.147,3.147,0,0,1,15.058.917l.1.009.006.1a3.15,3.15,0,0,1-.948,2.459A3.129,3.129,0,0,1,12.025,4.375Zm-.17-.24a2.894,2.894,0,0,0,2.2-.818,2.913,2.913,0,0,0,.881-2.173,2.91,2.91,0,0,0-3.079,2.99Z"/>
        </g>
        <g>
          <path class="cls-1" d="M7.532,2.581a1.758,1.758,0,0,1,1.122.532,1.78,1.78,0,0,1,.5,1.138A1.758,1.758,0,0,1,8.03,3.719a1.78,1.78,0,0,1-.5-1.138m-.151-.91a2.688,2.688,0,0,0-.655.081A2.68,2.68,0,0,0,9.958,5.08a2.678,2.678,0,0,0-2.577-3.41Z"/>
          <path class="cls-1" d="M9.3,5.279A2.772,2.772,0,0,1,7.3,4.43a2.805,2.805,0,0,1-.684-2.711l.018-.065L6.7,1.637a2.806,2.806,0,0,1,.684-.085A2.774,2.774,0,0,1,9.387,2.4a2.807,2.807,0,0,1,.684,2.711l-.018.065-.066.017A2.806,2.806,0,0,1,9.3,5.279ZM6.822,1.85a2.569,2.569,0,0,0,.644,2.416A2.538,2.538,0,0,0,9.3,5.043a2.565,2.565,0,0,0,.559-.062,2.57,2.57,0,0,0-.644-2.417,2.561,2.561,0,0,0-2.4-.715ZM9.277,4.38l-.135-.012A1.892,1.892,0,0,1,7.414,2.588l-.007-.136.135.012A1.891,1.891,0,0,1,9.27,4.244ZM7.663,2.716a1.657,1.657,0,0,0,1.357,1.4,1.655,1.655,0,0,0-1.357-1.4Z"/>
        </g>
        <g>
          <path class="cls-1" d="M15.863,27.1a1.745,1.745,0,0,1-1.75-1.75V22.143a11.762,11.762,0,0,1-7.209,0v3.211a1.744,1.744,0,0,1-1.75,1.75,1.745,1.745,0,0,1-1.737-1.75V20.293A11.23,11.23,0,0,1,.334,16.671a1.705,1.705,0,0,1-.217-.823,1.838,1.838,0,0,1,.071-.5A1.68,1.68,0,0,1,1.03,14.3a1.729,1.729,0,0,1,1.326-.146,1.751,1.751,0,0,1,1.042.836l.019.035V13.413A6.86,6.86,0,0,1,5.5,8.4a6.86,6.86,0,0,1,5.012-2.08A6.86,6.86,0,0,1,15.52,8.4a6.86,6.86,0,0,1,2.08,5.012v1.636l.032-.057a1.74,1.74,0,0,1,3.2.351,1.839,1.839,0,0,1,.072.5,1.708,1.708,0,0,1-.218.825A11.4,11.4,0,0,1,17.6,20.305v5.048a1.744,1.744,0,0,1-1.736,1.75Zm-.846-6.268v4.518a.841.841,0,0,0,.846.846.784.784,0,0,0,.586-.246.8.8,0,0,0,.246-.6v-5.5l.184-.135a10.486,10.486,0,0,0,3.008-3.475A.8.8,0,0,0,20,15.847a.935.935,0,0,0-.037-.255.785.785,0,0,0-.4-.5.818.818,0,0,0-.648-.071.785.785,0,0,0-.482.4,10.03,10.03,0,0,1-.925,1.382l-.8,1.006v-4.4a5.909,5.909,0,0,0-1.815-4.372,5.91,5.91,0,0,0-4.373-1.815A5.909,5.909,0,0,0,6.136,9.041a5.909,5.909,0,0,0-1.815,4.372v4.4l-.8-1.006a9.164,9.164,0,0,1-.91-1.38.839.839,0,0,0-1.143-.331.785.785,0,0,0-.4.5.93.93,0,0,0-.036.253.8.8,0,0,0,.107.392A10.327,10.327,0,0,0,4.136,19.7l.185.135v5.517a.8.8,0,0,0,.246.6.783.783,0,0,0,.586.246A.84.84,0,0,0,6,25.353V20.835l.618.244a10.792,10.792,0,0,0,7.782,0Zm-4.509-.709a8.9,8.9,0,0,1-4.271-1.068L6,18.93V13.413A4.515,4.515,0,0,1,10.508,8.9a4.515,4.515,0,0,1,4.509,4.509V18.93l-.237.128A8.9,8.9,0,0,1,10.508,20.126ZM6.9,18.385a8.182,8.182,0,0,0,7.209,0V13.413a3.611,3.611,0,0,0-3.6-3.6,3.611,3.611,0,0,0-3.6,3.6Z"/>
          <path class="cls-1" d="M15.863,27.221a1.863,1.863,0,0,1-1.868-1.868V22.3a11.9,11.9,0,0,1-6.973,0v3.049a1.863,1.863,0,0,1-1.868,1.868A1.863,1.863,0,0,1,3.3,25.353v-5A11.347,11.347,0,0,1,.231,16.727,1.819,1.819,0,0,1,0,15.847a1.962,1.962,0,0,1,.076-.534,1.8,1.8,0,0,1,.9-1.116,1.851,1.851,0,0,1,1.414-.156,1.9,1.9,0,0,1,.911.6V13.413a6.974,6.974,0,0,1,2.114-5.1,6.975,6.975,0,0,1,5.1-2.114,6.975,6.975,0,0,1,5.1,2.114,6.974,6.974,0,0,1,2.114,5.1v1.232a1.85,1.85,0,0,1,2.326-.448,1.794,1.794,0,0,1,.9,1.112,1.976,1.976,0,0,1,.076.538,1.828,1.828,0,0,1-.232.882,11.527,11.527,0,0,1-3.068,3.634v4.99a1.863,1.863,0,0,1-1.854,1.868ZM14.231,21.98v3.373a1.625,1.625,0,1,0,3.251,0V20.247l.046-.035a11.283,11.283,0,0,0,3.05-3.6,1.592,1.592,0,0,0,.2-.769,1.735,1.735,0,0,0-.067-.473,1.617,1.617,0,0,0-2.978-.328l-.242.424-.012-.422V13.413a6.746,6.746,0,0,0-2.045-4.928A6.748,6.748,0,0,0,10.508,6.44,6.748,6.748,0,0,0,5.58,8.485a6.746,6.746,0,0,0-2.045,4.928v2.065l-.24-.429a1.626,1.626,0,0,0-.975-.782,1.6,1.6,0,0,0-1.234.137,1.569,1.569,0,0,0-.785.974,1.737,1.737,0,0,0-.066.469,1.584,1.584,0,0,0,.2.766A11.111,11.111,0,0,0,3.489,20.2l.047.035v5.119a1.627,1.627,0,0,0,1.619,1.632,1.627,1.627,0,0,0,1.632-1.632V21.98l.155.051a11.643,11.643,0,0,0,7.135,0Zm1.632,4.337a.911.911,0,0,1-.684-.28.923.923,0,0,1-.28-.684V21.008l-.457.18a10.908,10.908,0,0,1-7.868,0l-.456-.18v4.345a.958.958,0,0,1-.964.964.9.9,0,0,1-.67-.28.923.923,0,0,1-.28-.684V19.9l-.137-.1a10.456,10.456,0,0,1-3.041-3.5A.917.917,0,0,1,.9,15.847a1.039,1.039,0,0,1,.041-.286.907.907,0,0,1,.462-.571.955.955,0,0,1,1.3.377,9.08,9.08,0,0,0,.9,1.363l.6.743V13.413A6.021,6.021,0,0,1,6.053,8.958a6.021,6.021,0,0,1,4.456-1.849,6.021,6.021,0,0,1,4.456,1.849,6.021,6.021,0,0,1,1.85,4.456v4.062l.595-.743a9.9,9.9,0,0,0,.914-1.366.9.9,0,0,1,.549-.454.944.944,0,0,1,.739.08.907.907,0,0,1,.46.567,1.059,1.059,0,0,1,.041.288.924.924,0,0,1-.122.45A10.607,10.607,0,0,1,16.95,19.81l-.136.1v5.442a.923.923,0,0,1-.281.684A.907.907,0,0,1,15.863,26.317Zm-.728-5.655v4.691a.722.722,0,0,0,.728.728.666.666,0,0,0,.5-.211.68.68,0,0,0,.212-.517V19.792l.232-.171a10.368,10.368,0,0,0,2.974-3.436.69.69,0,0,0,.093-.337.828.828,0,0,0-.032-.223A.664.664,0,0,0,19.5,15.2a.7.7,0,0,0-.559-.061.67.67,0,0,0-.41.341,10.164,10.164,0,0,1-.937,1.4l-1.015,1.268V13.413A5.8,5.8,0,0,0,14.8,9.124a5.8,5.8,0,0,0-4.289-1.78,5.8,5.8,0,0,0-4.289,1.78,5.8,5.8,0,0,0-1.78,4.289v4.734L3.424,16.879a9.283,9.283,0,0,1-.922-1.4.72.72,0,0,0-.982-.283.664.664,0,0,0-.348.428.8.8,0,0,0-.032.221.688.688,0,0,0,.093.335,10.207,10.207,0,0,0,2.973,3.424l.234.171v5.576a.681.681,0,0,0,.211.517.665.665,0,0,0,.5.211.722.722,0,0,0,.728-.728V20.662l.779.307a10.673,10.673,0,0,0,7.7,0Zm-4.627-.418a9.017,9.017,0,0,1-4.328-1.082L5.882,19V13.413a4.634,4.634,0,0,1,4.627-4.626,4.633,4.633,0,0,1,4.627,4.626V19l-.3.161A9.011,9.011,0,0,1,10.508,20.244ZM6.118,18.859l.175.095a8.957,8.957,0,0,0,8.43,0l.176-.095V13.413a4.4,4.4,0,0,0-4.391-4.39,4.4,4.4,0,0,0-4.391,4.39Zm4.391.481a8.126,8.126,0,0,1-3.657-.849l-.065-.032V13.413a3.729,3.729,0,0,1,3.722-3.722,3.729,3.729,0,0,1,3.722,3.722v5.045l-.065.032A8.126,8.126,0,0,1,10.508,19.34ZM7.022,18.312a8.069,8.069,0,0,0,6.973,0v-4.9a3.493,3.493,0,0,0-3.487-3.487,3.493,3.493,0,0,0-3.487,3.487Z"/>
        </g>
      </g>
    </g>
  </g>
</svg>
